solid OpenSCAD_Model
  facet normal 1 -0 0
    outer loop
      vertex 21.6 -96.35 38
      vertex 21.6 -90.35 19.4641
      vertex 21.6 -90.35 38
    endloop
  endfacet
  facet normal 1 0 0
    outer loop
      vertex 21.6 -90.35 19.4641
      vertex 21.6 -96.35 38
      vertex 21.6 -96.35 19.4641
    endloop
  endfacet
  facet normal -0 0 1
    outer loop
      vertex 0 -90.35 38
      vertex 21.6 -96.35 38
      vertex 21.6 -90.35 38
    endloop
  endfacet
  facet normal 0 0 1
    outer loop
      vertex 21.6 -96.35 38
      vertex 0 -90.35 38
      vertex 0 -96.35 38
    endloop
  endfacet
  facet normal -1 0 0
    outer loop
      vertex 0 -10 0
      vertex 0 -90.35 25
      vertex 0 -10 24
    endloop
  endfacet
  facet normal -1 0 0
    outer loop
      vertex 0 -96.35 0
      vertex 0 -90.35 25
      vertex 0 -10 0
    endloop
  endfacet
  facet normal -1 0 0
    outer loop
      vertex 0 -96.35 38
      vertex 0 -90.35 25
      vertex 0 -96.35 0
    endloop
  endfacet
  facet normal -1 0 0
    outer loop
      vertex 0 -90.35 25
      vertex 0 -96.35 38
      vertex 0 -90.35 38
    endloop
  endfacet
  facet normal -1 0 0
    outer loop
      vertex 0 96.35 0
      vertex 0 90.35 25
      vertex 0 96.35 38
    endloop
  endfacet
  facet normal -1 0 0
    outer loop
      vertex 0 10 0
      vertex 0 90.35 25
      vertex 0 96.35 0
    endloop
  endfacet
  facet normal -1 0 0
    outer loop
      vertex 0 10 24
      vertex 0 90.35 25
      vertex 0 10 0
    endloop
  endfacet
  facet normal -1 0 0
    outer loop
      vertex 0 -10 24
      vertex 0 90.35 25
      vertex 0 10 24
    endloop
  endfacet
  facet normal -1 -0 0
    outer loop
      vertex 0 90.35 25
      vertex 0 -10 24
      vertex 0 -90.35 25
    endloop
  endfacet
  facet normal -1 -0 0
    outer loop
      vertex 0 96.35 38
      vertex 0 90.35 25
      vertex 0 90.35 38
    endloop
  endfacet
  facet normal 0 1 0
    outer loop
      vertex 21.6 -90.35 38
      vertex 7 -90.35 25
      vertex 0 -90.35 38
    endloop
  endfacet
  facet normal 0 1 -0
    outer loop
      vertex 21.6 -90.35 19.4641
      vertex 7 -90.35 25
      vertex 21.6 -90.35 38
    endloop
  endfacet
  facet normal 0 1 -0
    outer loop
      vertex 19.6 -90.35 16
      vertex 7 -90.35 25
      vertex 21.6 -90.35 19.4641
    endloop
  endfacet
  facet normal 0 1 0
    outer loop
      vertex 7 -90.35 25
      vertex 19.6 -90.35 16
      vertex 7 -90.35 16
    endloop
  endfacet
  facet normal 0 1 0
    outer loop
      vertex 0 -90.35 38
      vertex 7 -90.35 25
      vertex 0 -90.35 25
    endloop
  endfacet
  facet normal 0 -1 0
    outer loop
      vertex 0 -96.35 38
      vertex 21.6 -96.35 19.4641
      vertex 21.6 -96.35 38
    endloop
  endfacet
  facet normal 0 -1 0
    outer loop
      vertex 0 -96.35 0
      vertex 21.6 -96.35 19.4641
      vertex 0 -96.35 38
    endloop
  endfacet
  facet normal 0 -1 0
    outer loop
      vertex 0 -96.35 0
      vertex 28.6 -96.35 16
      vertex 21.6 -96.35 19.4641
    endloop
  endfacet
  facet normal 0 -1 0
    outer loop
      vertex 130 -96.35 0
      vertex 28.6 -96.35 16
      vertex 0 -96.35 0
    endloop
  endfacet
  facet normal 0 -1 0
    outer loop
      vertex 28.6 -96.35 16
      vertex 130 -96.35 0
      vertex 130 -96.35 16
    endloop
  endfacet
  facet normal 0 -1 0
    outer loop
      vertex 28.6 -96.35 16
      vertex 81.75 -96.35 123.647
      vertex 21.6 -96.35 19.4641
    endloop
  endfacet
  facet normal 0 -1 -0
    outer loop
      vertex 81.75 -96.35 123.647
      vertex 28.6 -96.35 16
      vertex 90.75 -96.35 123.647
    endloop
  endfacet
  facet normal 1 -0 0
    outer loop
      vertex 21.6 90.35 38
      vertex 21.6 96.35 19.4641
      vertex 21.6 96.35 38
    endloop
  endfacet
  facet normal 1 0 0
    outer loop
      vertex 21.6 96.35 19.4641
      vertex 21.6 90.35 38
      vertex 21.6 90.35 19.4641
    endloop
  endfacet
  facet normal -0 0 1
    outer loop
      vertex 0 96.35 38
      vertex 21.6 90.35 38
      vertex 21.6 96.35 38
    endloop
  endfacet
  facet normal 0 0 1
    outer loop
      vertex 21.6 90.35 38
      vertex 0 96.35 38
      vertex 0 90.35 38
    endloop
  endfacet
  facet normal 0 1 0
    outer loop
      vertex 130 96.35 16
      vertex 130 96.35 0
      vertex 28.6 96.35 16
    endloop
  endfacet
  facet normal 0 1 0
    outer loop
      vertex 28.6 96.35 16
      vertex 81.75 96.35 123.647
      vertex 90.75 96.35 123.647
    endloop
  endfacet
  facet normal 0 1 0
    outer loop
      vertex 81.75 96.35 123.647
      vertex 28.6 96.35 16
      vertex 21.6 96.35 19.4641
    endloop
  endfacet
  facet normal 0 1 -0
    outer loop
      vertex 21.6 96.35 19.4641
      vertex 0 96.35 38
      vertex 21.6 96.35 38
    endloop
  endfacet
  facet normal 0 1 0
    outer loop
      vertex 21.6 96.35 19.4641
      vertex 0 96.35 0
      vertex 0 96.35 38
    endloop
  endfacet
  facet normal 0 1 0
    outer loop
      vertex 28.6 96.35 16
      vertex 0 96.35 0
      vertex 21.6 96.35 19.4641
    endloop
  endfacet
  facet normal 0 1 0
    outer loop
      vertex 0 96.35 0
      vertex 28.6 96.35 16
      vertex 130 96.35 0
    endloop
  endfacet
  facet normal 0 -1 0
    outer loop
      vertex 7 90.35 25
      vertex 0 90.35 38
      vertex 0 90.35 25
    endloop
  endfacet
  facet normal 0 -1 0
    outer loop
      vertex 0 90.35 38
      vertex 7 90.35 25
      vertex 21.6 90.35 38
    endloop
  endfacet
  facet normal 0 -1 0
    outer loop
      vertex 7 90.35 25
      vertex 21.6 90.35 19.4641
      vertex 21.6 90.35 38
    endloop
  endfacet
  facet normal 0 -1 0
    outer loop
      vertex 19.6 90.35 16
      vertex 7 90.35 25
      vertex 7 90.35 16
    endloop
  endfacet
  facet normal 0 -1 0
    outer loop
      vertex 7 90.35 25
      vertex 19.6 90.35 16
      vertex 21.6 90.35 19.4641
    endloop
  endfacet
  facet normal -0 0 1
    outer loop
      vertex 28.6 96.35 16
      vertex 130 -96.35 16
      vertex 130 96.35 16
    endloop
  endfacet
  facet normal 0 0 1
    outer loop
      vertex 130 -96.35 16
      vertex 28.6 96.35 16
      vertex 28.6 -96.35 16
    endloop
  endfacet
  facet normal 0.866025 0 -0.5
    outer loop
      vertex 90.75 -96.35 123.647
      vertex 28.6 96.35 16
      vertex 90.75 96.35 123.647
    endloop
  endfacet
  facet normal 0.866025 0 -0.5
    outer loop
      vertex 28.6 96.35 16
      vertex 90.75 -96.35 123.647
      vertex 28.6 -96.35 16
    endloop
  endfacet
  facet normal -0 0 1
    outer loop
      vertex 81.75 96.35 123.647
      vertex 90.75 -96.35 123.647
      vertex 90.75 96.35 123.647
    endloop
  endfacet
  facet normal 0 0 1
    outer loop
      vertex 90.75 -96.35 123.647
      vertex 81.75 96.35 123.647
      vertex 81.75 -96.35 123.647
    endloop
  endfacet
  facet normal -0.866025 0 0.5
    outer loop
      vertex 21.6 -90.35 19.4641
      vertex 19.6 -10 16
      vertex 19.6 -90.35 16
    endloop
  endfacet
  facet normal -0.866025 0 0.5
    outer loop
      vertex 19.6 90.35 16
      vertex 19.6 10 16
      vertex 21.6 90.35 19.4641
    endloop
  endfacet
  facet normal -0.866025 0 0.5
    outer loop
      vertex 21.6 90.35 19.4641
      vertex 81.75 96.35 123.647
      vertex 21.6 96.35 19.4641
    endloop
  endfacet
  facet normal -0.866025 1.10539e-17 0.5
    outer loop
      vertex 23.6 10 22.9282
      vertex 21.6 90.35 19.4641
      vertex 19.6 10 16
    endloop
  endfacet
  facet normal -0.866025 -1.90916e-08 0.5
    outer loop
      vertex 21.6 90.35 19.4641
      vertex 23.6 10 22.9282
      vertex 81.75 96.35 123.647
    endloop
  endfacet
  facet normal -0.866026 0 0.5
    outer loop
      vertex 23.6 -10 22.9282
      vertex 81.75 96.35 123.647
      vertex 23.6 10 22.9282
    endloop
  endfacet
  facet normal -0.866025 -1.10539e-17 0.5
    outer loop
      vertex 19.6 -10 16
      vertex 21.6 -90.35 19.4641
      vertex 23.6 -10 22.9282
    endloop
  endfacet
  facet normal -0.866025 1.90916e-08 0.5
    outer loop
      vertex 81.75 -96.35 123.647
      vertex 23.6 -10 22.9282
      vertex 21.6 -90.35 19.4641
    endloop
  endfacet
  facet normal -0.866025 0 0.5
    outer loop
      vertex 81.75 -96.35 123.647
      vertex 21.6 -90.35 19.4641
      vertex 21.6 -96.35 19.4641
    endloop
  endfacet
  facet normal -0.866026 0 0.5
    outer loop
      vertex 23.6 -10 22.9282
      vertex 81.75 -96.35 123.647
      vertex 81.75 96.35 123.647
    endloop
  endfacet
  facet normal -0 0 1
    outer loop
      vertex 7 -10 16
      vertex 19.6 -90.35 16
      vertex 19.6 -10 16
    endloop
  endfacet
  facet normal 0 0 1
    outer loop
      vertex 19.6 -90.35 16
      vertex 7 -10 16
      vertex 7 -90.35 16
    endloop
  endfacet
  facet normal -0 0 1
    outer loop
      vertex 7 90.35 16
      vertex 19.6 10 16
      vertex 19.6 90.35 16
    endloop
  endfacet
  facet normal 0 0 1
    outer loop
      vertex 19.6 10 16
      vertex 7 90.35 16
      vertex 7 10 16
    endloop
  endfacet
  facet normal 1 0 0
    outer loop
      vertex 7 90.35 25
      vertex 7 10 24
      vertex 7 90.35 16
    endloop
  endfacet
  facet normal 1 0 0
    outer loop
      vertex 7 90.35 25
      vertex 7 -10 24
      vertex 7 10 24
    endloop
  endfacet
  facet normal 1 -0 0
    outer loop
      vertex 7 -90.35 25
      vertex 7 -10 24
      vertex 7 90.35 25
    endloop
  endfacet
  facet normal 1 0 0
    outer loop
      vertex 7 -90.35 16
      vertex 7 -10 24
      vertex 7 -90.35 25
    endloop
  endfacet
  facet normal 1 0 0
    outer loop
      vertex 7 -10 24
      vertex 7 -90.35 16
      vertex 7 -10 16
    endloop
  endfacet
  facet normal 1 0 0
    outer loop
      vertex 7 90.35 16
      vertex 7 10 24
      vertex 7 10 16
    endloop
  endfacet
  facet normal -0 0 1
    outer loop
      vertex 0 90.35 25
      vertex 7 -90.35 25
      vertex 7 90.35 25
    endloop
  endfacet
  facet normal 0 0 1
    outer loop
      vertex 7 -90.35 25
      vertex 0 90.35 25
      vertex 0 -90.35 25
    endloop
  endfacet
  facet normal 0 0 -1
    outer loop
      vertex 23.6 10 0
      vertex 130 4.5 0
      vertex 23.6 4.5 0
    endloop
  endfacet
  facet normal 0 0 -1
    outer loop
      vertex 130 4.5 0
      vertex 23.6 10 0
      vertex 130 96.35 0
    endloop
  endfacet
  facet normal 0 0 -1
    outer loop
      vertex 0 96.35 0
      vertex 23.6 10 0
      vertex 0 10 0
    endloop
  endfacet
  facet normal 0 0 -1
    outer loop
      vertex 23.6 10 0
      vertex 0 96.35 0
      vertex 130 96.35 0
    endloop
  endfacet
  facet normal 0 0 -1
    outer loop
      vertex 130 -96.35 0
      vertex 23.6 -10 0
      vertex 130 -4.5 0
    endloop
  endfacet
  facet normal 0 0 -1
    outer loop
      vertex 0 -96.35 0
      vertex 23.6 -10 0
      vertex 130 -96.35 0
    endloop
  endfacet
  facet normal -0 0 -1
    outer loop
      vertex 23.6 -10 0
      vertex 0 -96.35 0
      vertex 0 -10 0
    endloop
  endfacet
  facet normal -0 0 -1
    outer loop
      vertex 130 -4.5 0
      vertex 23.6 -10 0
      vertex 23.6 -4.5 0
    endloop
  endfacet
  facet normal 1 0 0
    outer loop
      vertex 130 96.35 16
      vertex 130 4.5 7
      vertex 130 96.35 0
    endloop
  endfacet
  facet normal 1 0 0
    outer loop
      vertex 130 96.35 16
      vertex 130 -4.5 7
      vertex 130 4.5 7
    endloop
  endfacet
  facet normal 1 -0 0
    outer loop
      vertex 130 -96.35 16
      vertex 130 -4.5 7
      vertex 130 96.35 16
    endloop
  endfacet
  facet normal 1 0 0
    outer loop
      vertex 130 -96.35 0
      vertex 130 -4.5 7
      vertex 130 -96.35 16
    endloop
  endfacet
  facet normal 1 0 0
    outer loop
      vertex 130 -4.5 7
      vertex 130 -96.35 0
      vertex 130 -4.5 0
    endloop
  endfacet
  facet normal 1 0 0
    outer loop
      vertex 130 96.35 0
      vertex 130 4.5 7
      vertex 130 4.5 0
    endloop
  endfacet
  facet normal -1 0 0
    outer loop
      vertex 23.6 -4.5 0
      vertex 23.6 -10 0
      vertex 23.6 -4.5 7
    endloop
  endfacet
  facet normal -1 0 0
    outer loop
      vertex 23.6 4.5 7
      vertex 23.6 10 0
      vertex 23.6 4.5 0
    endloop
  endfacet
  facet normal -1 0 0
    outer loop
      vertex 23.6 10 0
      vertex 23.6 4.5 7
      vertex 23.6 10 22.9282
    endloop
  endfacet
  facet normal -1 0 0
    outer loop
      vertex 23.6 -4.5 7
      vertex 23.6 10 22.9282
      vertex 23.6 4.5 7
    endloop
  endfacet
  facet normal -1 0 0
    outer loop
      vertex 23.6 -4.5 7
      vertex 23.6 -10 22.9282
      vertex 23.6 10 22.9282
    endloop
  endfacet
  facet normal -1 0 0
    outer loop
      vertex 23.6 -10 22.9282
      vertex 23.6 -4.5 7
      vertex 23.6 -10 0
    endloop
  endfacet
  facet normal 0 0 -1
    outer loop
      vertex 0 -10 24
      vertex 7 10 24
      vertex 7 -10 24
    endloop
  endfacet
  facet normal -0 0 -1
    outer loop
      vertex 7 10 24
      vertex 0 -10 24
      vertex 0 10 24
    endloop
  endfacet
  facet normal 0 -1 0
    outer loop
      vertex 0 10 24
      vertex 7 10 16
      vertex 7 10 24
    endloop
  endfacet
  facet normal 0 -1 0
    outer loop
      vertex 23.6 10 0
      vertex 7 10 16
      vertex 0 10 0
    endloop
  endfacet
  facet normal 0 -1 0
    outer loop
      vertex 0 10 0
      vertex 7 10 16
      vertex 0 10 24
    endloop
  endfacet
  facet normal 0 -1 0
    outer loop
      vertex 19.6 10 16
      vertex 23.6 10 0
      vertex 23.6 10 22.9282
    endloop
  endfacet
  facet normal 0 -1 0
    outer loop
      vertex 7 10 16
      vertex 23.6 10 0
      vertex 19.6 10 16
    endloop
  endfacet
  facet normal 0 1 0
    outer loop
      vertex 19.6 -10 16
      vertex 23.6 -10 0
      vertex 7 -10 16
    endloop
  endfacet
  facet normal 0 1 -0
    outer loop
      vertex 23.6 -10 0
      vertex 19.6 -10 16
      vertex 23.6 -10 22.9282
    endloop
  endfacet
  facet normal 0 1 -0
    outer loop
      vertex 7 -10 16
      vertex 0 -10 24
      vertex 7 -10 24
    endloop
  endfacet
  facet normal 0 1 0
    outer loop
      vertex 7 -10 16
      vertex 0 -10 0
      vertex 0 -10 24
    endloop
  endfacet
  facet normal 0 1 0
    outer loop
      vertex 0 -10 0
      vertex 7 -10 16
      vertex 23.6 -10 0
    endloop
  endfacet
  facet normal 0 0 -1
    outer loop
      vertex 23.6 -4.5 7
      vertex 130 4.5 7
      vertex 130 -4.5 7
    endloop
  endfacet
  facet normal -0 0 -1
    outer loop
      vertex 130 4.5 7
      vertex 23.6 -4.5 7
      vertex 23.6 4.5 7
    endloop
  endfacet
  facet normal 0 -1 0
    outer loop
      vertex 23.6 4.5 0
      vertex 130 4.5 7
      vertex 23.6 4.5 7
    endloop
  endfacet
  facet normal 0 -1 -0
    outer loop
      vertex 130 4.5 7
      vertex 23.6 4.5 0
      vertex 130 4.5 0
    endloop
  endfacet
  facet normal 0 1 -0
    outer loop
      vertex 130 -4.5 0
      vertex 23.6 -4.5 7
      vertex 130 -4.5 7
    endloop
  endfacet
  facet normal 0 1 0
    outer loop
      vertex 23.6 -4.5 7
      vertex 130 -4.5 0
      vertex 23.6 -4.5 0
    endloop
  endfacet
endsolid OpenSCAD_Model
